<svg width="24" height="25" viewBox="0 0 24 25" fill="none" xmlns="http://www.w3.org/2000/svg">
<path d="M3.87289 17.5194L2.66933 10.3398C2.48735 9.25428 2.39637 8.71152 2.68773 8.35576C2.9791 8 3.51461 8 4.58564 8H19.4144C20.4854 8 21.0209 8 21.3123 8.35576C21.6036 8.71152 21.5126 9.25428 21.3307 10.3398L20.1271 17.5194C19.7282 19.8991 19.5287 21.0889 18.7143 21.7945C17.9 22.5 16.726 22.5 14.3782 22.5H9.62182C7.27396 22.5 6.10003 22.5 5.28565 21.7945C4.47127 21.0889 4.27181 19.8991 3.87289 17.5194Z" stroke="#1D1D1D" stroke-width="1.5"/>
<path d="M17.5 8C17.5 4.96243 15.0376 2.5 12 2.5C8.96243 2.5 6.5 4.96243 6.5 8" stroke="#1D1D1D" stroke-width="1.5"/>
</svg>
