<svg width="32" height="32" viewBox="0 0 32 32" fill="none" xmlns="http://www.w3.org/2000/svg">
<path d="M22.6667 26.6666C24.1394 26.6666 25.3333 25.4727 25.3333 24C25.3333 22.5272 24.1394 21.3333 22.6667 21.3333C21.1939 21.3333 20 22.5272 20 24C20 25.4727 21.1939 26.6666 22.6667 26.6666Z" stroke="white" stroke-width="1.5"/>
<path d="M9.33341 26.6666C10.8062 26.6666 12.0001 25.4727 12.0001 24C12.0001 22.5272 10.8062 21.3333 9.33341 21.3333C7.86066 21.3333 6.66675 22.5272 6.66675 24C6.66675 25.4727 7.86066 26.6666 9.33341 26.6666Z" stroke="white" stroke-width="1.5"/>
<path d="M6.66675 23.9632C5.20445 23.8904 4.29221 23.6728 3.64305 23.0237C2.99389 22.3745 2.77637 21.4622 2.70348 20M12.0001 24H20.0001M25.3334 23.9632C26.7957 23.8904 27.7079 23.6728 28.3571 23.0237C29.3334 22.0473 29.3334 20.476 29.3334 17.3333V14.6666H23.0667C22.0741 14.6666 21.5777 14.6666 21.1761 14.5361C20.3642 14.2724 19.7277 13.6358 19.4639 12.824C19.3334 12.4223 19.3334 11.926 19.3334 10.9333C19.3334 9.44429 19.3334 8.69978 19.1377 8.09725C18.7419 6.8795 17.7873 5.92475 16.5695 5.52909C15.967 5.33331 15.2225 5.33331 13.7334 5.33331H2.66675" stroke="white" stroke-width="1.5" stroke-linecap="round" stroke-linejoin="round"/>
<path d="M2.66675 10.6667H10.6667" stroke="white" stroke-width="1.5" stroke-linecap="round" stroke-linejoin="round"/>
<path d="M2.66675 14.6667H8.00008" stroke="white" stroke-width="1.5" stroke-linecap="round" stroke-linejoin="round"/>
<path d="M19.3333 8H21.7615C23.7021 8 24.6722 8 25.4618 8.47161C26.2514 8.94323 26.7114 9.79748 27.6314 11.506L29.3333 14.6667" stroke="white" stroke-width="1.5" stroke-linecap="round" stroke-linejoin="round"/>
</svg>
